<svg width="40" height="41" viewBox="0 0 40 41" fill="none" xmlns="http://www.w3.org/2000/svg">
<path d="M38.1818 0.983307H16.3636C15.8814 0.983307 15.419 1.17486 15.078 1.51584C14.737 1.85682 14.5455 2.31928 14.5455 2.80149V8.25603H1.81818C1.33597 8.25603 0.873508 8.44759 0.532533 8.78857C0.191558 9.12954 0 9.592 0 10.0742V39.1651C0 39.6473 0.191558 40.1098 0.532533 40.4508C0.873508 40.7918 1.33597 40.9833 1.81818 40.9833H38.1818C38.664 40.9833 39.1265 40.7918 39.4675 40.4508C39.8084 40.1098 40 39.6473 40 39.1651V2.80149C40 2.31928 39.8084 1.85682 39.4675 1.51584C39.1265 1.17486 38.664 0.983307 38.1818 0.983307ZM21.8182 37.3469H3.63636V11.8924H21.8182V37.3469ZM36.3636 37.3469H25.4545V10.0742C25.4545 9.592 25.263 9.12954 24.922 8.78857C24.581 8.44759 24.1186 8.25603 23.6364 8.25603H18.1818V4.61967H36.3636V37.3469ZM7.27273 17.3469C7.27273 16.8647 7.46429 16.4023 7.80526 16.0613C8.14624 15.7203 8.6087 15.5288 9.09091 15.5288H16.3636C16.8458 15.5288 17.3083 15.7203 17.6493 16.0613C17.9903 16.4023 18.1818 16.8647 18.1818 17.3469C18.1818 17.8292 17.9903 18.2916 17.6493 18.6326C17.3083 18.9736 16.8458 19.1651 16.3636 19.1651H9.09091C8.6087 19.1651 8.14624 18.9736 7.80526 18.6326C7.46429 18.2916 7.27273 17.8292 7.27273 17.3469ZM7.27273 24.6197C7.27273 24.1375 7.46429 23.675 7.80526 23.334C8.14624 22.993 8.6087 22.8015 9.09091 22.8015H16.3636C16.8458 22.8015 17.3083 22.993 17.6493 23.334C17.9903 23.675 18.1818 24.1375 18.1818 24.6197C18.1818 25.1019 17.9903 25.5643 17.6493 25.9053C17.3083 26.2463 16.8458 26.4379 16.3636 26.4379H9.09091C8.6087 26.4379 8.14624 26.2463 7.80526 25.9053C7.46429 25.5643 7.27273 25.1019 7.27273 24.6197ZM7.27273 31.8924C7.27273 31.4102 7.46429 30.9477 7.80526 30.6067C8.14624 30.2658 8.6087 30.0742 9.09091 30.0742H16.3636C16.8458 30.0742 17.3083 30.2658 17.6493 30.6067C17.9903 30.9477 18.1818 31.4102 18.1818 31.8924C18.1818 32.3746 17.9903 32.8371 17.6493 33.178C17.3083 33.519 16.8458 33.7106 16.3636 33.7106H9.09091C8.6087 33.7106 8.14624 33.519 7.80526 33.178C7.46429 32.8371 7.27273 32.3746 7.27273 31.8924Z" fill="#212121" fill-opacity="0.5"/>
</svg>
