<svg width="40" height="40" viewBox="0 0 40 40" fill="none" xmlns="http://www.w3.org/2000/svg">
<path d="M0.585946 39.4148C0.960674 39.7895 1.46884 40 1.99871 40C2.52857 40 3.03674 39.7895 3.41147 39.4148L9.80587 33.0186C12.8496 34.9521 16.3773 35.9865 19.983 36.0028C28.6254 36.0028 36.4226 30.0065 39.8416 20.7041C40.0074 20.2579 40.0074 19.7671 39.8416 19.3209C38.496 15.5668 36.2784 12.1861 33.3712 9.45687L39.39 3.4365C39.5808 3.25212 39.733 3.03156 39.8378 2.7877C39.9425 2.54384 39.9976 2.28156 39.9999 2.01616C40.0022 1.75076 39.9517 1.48756 39.8512 1.24192C39.7507 0.996274 39.6024 0.773105 39.4147 0.585433C39.2271 0.397761 39.004 0.249344 38.7584 0.148843C38.5128 0.0483422 38.2497 -0.00223077 37.9844 7.54679e-05C37.7191 0.00238171 37.4569 0.057521 37.2131 0.162276C36.9693 0.267031 36.7488 0.419303 36.5644 0.610208L30.17 7.00635C27.1234 5.07106 23.592 4.03656 19.983 4.02215C11.3405 4.02215 3.54336 10.0185 0.124351 19.3209C-0.0414503 19.7671 -0.0414503 20.2579 0.124351 20.7041C1.47281 24.4591 3.69391 27.84 6.60467 30.5681L0.585946 36.5885C0.211332 36.9633 0.000886171 37.4716 0.000886171 38.0016C0.000886171 38.5316 0.211332 39.04 0.585946 39.4148ZM30.5057 12.3131C32.8388 14.4441 34.6582 17.0766 35.8271 20.0125C32.8737 27.3221 26.7231 32.0053 19.983 32.0053C17.4415 31.9938 14.9444 31.3377 12.7253 30.0984L15.9485 26.8743C17.1665 27.6091 18.5606 28.0007 19.983 28.0077C22.1028 28.0077 24.1359 27.1653 25.6349 25.6659C27.1338 24.1665 27.976 22.1329 27.976 20.0125C27.969 18.5897 27.5775 17.1953 26.8429 15.9769L30.5057 12.3131ZM16.1363 21.0339C16.0415 20.7015 15.9912 20.3581 15.9865 20.0125C15.9865 18.9523 16.4075 17.9355 17.157 17.1858C17.9065 16.4361 18.923 16.0149 19.983 16.0149C20.3284 16.0196 20.6718 16.07 21.0041 16.1648L16.1363 21.0339ZM23.8296 18.9911C23.9244 19.3235 23.9748 19.6669 23.9795 20.0125C23.9795 21.0727 23.5584 22.0895 22.8089 22.8392C22.0594 23.5889 21.0429 24.0101 19.983 24.0101C19.6375 24.0054 19.2941 23.955 18.9619 23.8602L23.8296 18.9911ZM4.13883 20.0125C7.09225 12.7029 13.2429 8.01973 19.983 8.01973C22.5245 8.03121 25.0215 8.68728 27.2406 9.92658L24.0174 13.1506C22.7994 12.4159 21.4053 12.0243 19.983 12.0173C17.8631 12.0173 15.83 12.8597 14.3311 14.3591C12.8321 15.8584 11.99 17.892 11.99 20.0125C11.9969 21.4353 12.3884 22.8297 13.123 24.0481L9.46017 27.7118C7.12715 25.5809 5.30773 22.9484 4.13883 20.0125Z" fill="#221122" fill-opacity="0.65"/>
</svg>
