<svg width="153" height="25" viewBox="0 0 153 25" fill="none" xmlns="http://www.w3.org/2000/svg">
<path d="M15.7031 10.3116V13.9679H3.82812V10.3116H15.7031ZM5.21875 1.04602V23.796H0.53125V1.04602H5.21875ZM19.0469 1.04602V23.796H14.375V1.04602H19.0469ZM27.2162 4.93665L21.0287 23.796H16.0444L24.4975 1.04602H27.6694L27.2162 4.93665ZM32.3569 23.796L26.1537 4.93665L25.6537 1.04602H28.8569L37.3569 23.796H32.3569ZM32.0756 15.3273V18.9991H20.06V15.3273H32.0756ZM42.8856 15.6866H37.0887V12.0304H42.8856C43.7815 12.0304 44.5106 11.8846 45.0731 11.5929C45.6356 11.2908 46.0471 10.8741 46.3075 10.3429C46.5679 9.81165 46.6981 9.21269 46.6981 8.54602C46.6981 7.86894 46.5679 7.23873 46.3075 6.6554C46.0471 6.07206 45.6356 5.60331 45.0731 5.24915C44.5106 4.89498 43.7815 4.7179 42.8856 4.7179H38.7137V23.796H34.0262V1.04602H42.8856C44.6669 1.04602 46.1929 1.36894 47.4637 2.01477C48.745 2.65019 49.7242 3.5304 50.4012 4.6554C51.0783 5.7804 51.4169 7.06685 51.4169 8.51477C51.4169 9.98352 51.0783 11.2544 50.4012 12.3273C49.7242 13.4002 48.745 14.2283 47.4637 14.8116C46.1929 15.395 44.6669 15.6866 42.8856 15.6866ZM58.0706 15.6866H52.2738V12.0304H58.0706C58.9665 12.0304 59.6956 11.8846 60.2581 11.5929C60.8206 11.2908 61.2321 10.8741 61.4925 10.3429C61.7529 9.81165 61.8831 9.21269 61.8831 8.54602C61.8831 7.86894 61.7529 7.23873 61.4925 6.6554C61.2321 6.07206 60.8206 5.60331 60.2581 5.24915C59.6956 4.89498 58.9665 4.7179 58.0706 4.7179H53.8988V23.796H49.2113V1.04602H58.0706C59.8519 1.04602 61.3779 1.36894 62.6488 2.01477C63.93 2.65019 64.9092 3.5304 65.5863 4.6554C66.2633 5.7804 66.6019 7.06685 66.6019 8.51477C66.6019 9.98352 66.2633 11.2544 65.5863 12.3273C64.9092 13.4002 63.93 14.2283 62.6488 14.8116C61.3779 15.395 59.8519 15.6866 58.0706 15.6866ZM67.5212 1.04602L72.2712 11.421L77.0212 1.04602H82.1306L74.6462 15.5148V23.796H69.8962V15.5148L62.3962 1.04602H67.5212ZM85.7531 23.796H80.8L80.8313 20.1398H85.7531C86.9823 20.1398 88.0188 19.8637 88.8625 19.3116C89.7063 18.7491 90.3417 17.9314 90.7688 16.8585C91.2063 15.7856 91.425 14.4887 91.425 12.9679V11.8585C91.425 10.6919 91.3 9.66581 91.05 8.7804C90.8104 7.89498 90.451 7.15019 89.9719 6.54602C89.4927 5.94185 88.9042 5.48873 88.2063 5.18665C87.5083 4.87415 86.7063 4.7179 85.8 4.7179H80.7063V1.04602H85.8C87.3208 1.04602 88.7115 1.30644 89.9719 1.82727C91.2427 2.33769 92.3417 3.07206 93.2688 4.0304C94.1958 4.98873 94.9094 6.13456 95.4094 7.4679C95.9198 8.79081 96.175 10.2648 96.175 11.8898V12.9679C96.175 14.5825 95.9198 16.0564 95.4094 17.3898C94.9094 18.7231 94.1958 19.8689 93.2688 20.8273C92.3521 21.7752 91.2531 22.5096 89.9719 23.0304C88.701 23.5408 87.2948 23.796 85.7531 23.796ZM83.4563 1.04602V23.796H78.7688V1.04602H83.4563ZM94.1413 1.04602H102.626C104.365 1.04602 105.86 1.30644 107.11 1.82727C108.37 2.3481 109.339 3.11894 110.016 4.13977C110.693 5.1606 111.032 6.41581 111.032 7.9054C111.032 9.12415 110.824 10.171 110.407 11.046C110.001 11.9106 109.423 12.6346 108.673 13.2179C107.933 13.7908 107.063 14.2491 106.063 14.5929L104.579 15.3741H97.2038L97.1725 11.7179H102.657C103.48 11.7179 104.162 11.5721 104.704 11.2804C105.245 10.9887 105.652 10.5825 105.923 10.0616C106.204 9.54081 106.344 8.93665 106.344 8.24915C106.344 7.51998 106.209 6.88977 105.938 6.35852C105.667 5.82727 105.256 5.42102 104.704 5.13977C104.152 4.85852 103.459 4.7179 102.626 4.7179H98.8288V23.796H94.1413V1.04602ZM106.86 23.796L101.673 13.6554L106.626 13.6241L111.876 23.5773V23.796H106.86ZM124.467 20.1398V23.796H112.357V20.1398H124.467ZM113.889 1.04602V23.796H109.201V1.04602H113.889ZM122.889 10.3116V13.8741H112.357V10.3116H122.889ZM124.451 1.04602V4.7179H112.357V1.04602H124.451ZM133.605 17.8429C133.605 17.4366 133.542 17.0721 133.417 16.7491C133.303 16.4158 133.084 16.1137 132.761 15.8429C132.438 15.5616 131.985 15.2856 131.402 15.0148C130.819 14.7439 130.063 14.4627 129.136 14.171C128.105 13.8377 127.126 13.4627 126.199 13.046C125.282 12.6294 124.47 12.145 123.761 11.5929C123.063 11.0304 122.511 10.3794 122.105 9.63977C121.709 8.90019 121.511 8.04081 121.511 7.06165C121.511 6.11373 121.72 5.25435 122.136 4.48352C122.553 3.70227 123.136 3.0356 123.886 2.48352C124.636 1.92102 125.522 1.48873 126.542 1.18665C127.574 0.884562 128.704 0.733521 129.933 0.733521C131.61 0.733521 133.074 1.0356 134.324 1.63977C135.574 2.24394 136.542 3.07206 137.23 4.12415C137.928 5.17623 138.277 6.37935 138.277 7.73352H133.621C133.621 7.06685 133.48 6.48352 133.199 5.98352C132.928 5.4731 132.511 5.07206 131.949 4.7804C131.397 4.48873 130.699 4.3429 129.855 4.3429C129.042 4.3429 128.365 4.4679 127.824 4.7179C127.282 4.95748 126.876 5.2856 126.605 5.70227C126.334 6.10852 126.199 6.56685 126.199 7.07727C126.199 7.46269 126.292 7.81165 126.48 8.12415C126.678 8.43665 126.97 8.72831 127.355 8.99915C127.74 9.26998 128.214 9.52519 128.777 9.76477C129.339 10.0044 129.99 10.2387 130.73 10.4679C131.97 10.8429 133.058 11.2648 133.996 11.7335C134.944 12.2023 135.735 12.7283 136.371 13.3116C137.006 13.895 137.485 14.5564 137.808 15.296C138.131 16.0356 138.292 16.8741 138.292 17.8116C138.292 18.8012 138.1 19.6866 137.714 20.4679C137.329 21.2491 136.772 21.9106 136.042 22.4523C135.313 22.9939 134.444 23.4054 133.433 23.6866C132.423 23.9679 131.292 24.1085 130.042 24.1085C128.917 24.1085 127.808 23.9627 126.714 23.671C125.621 23.3689 124.626 22.9158 123.73 22.3116C122.845 21.7075 122.136 20.9366 121.605 19.9991C121.074 19.0616 120.808 17.9523 120.808 16.671H125.511C125.511 17.3794 125.621 17.9783 125.839 18.4679C126.058 18.9575 126.365 19.3533 126.761 19.6554C127.167 19.9575 127.647 20.1762 128.199 20.3116C128.761 20.4471 129.376 20.5148 130.042 20.5148C130.855 20.5148 131.522 20.4002 132.042 20.171C132.574 19.9419 132.964 19.6241 133.214 19.2179C133.475 18.8116 133.605 18.3533 133.605 17.8429ZM147.884 17.8429C147.884 17.4366 147.821 17.0721 147.696 16.7491C147.582 16.4158 147.363 16.1137 147.04 15.8429C146.717 15.5616 146.264 15.2856 145.681 15.0148C145.097 14.7439 144.342 14.4627 143.415 14.171C142.384 13.8377 141.405 13.4627 140.477 13.046C139.561 12.6294 138.748 12.145 138.04 11.5929C137.342 11.0304 136.79 10.3794 136.384 9.63977C135.988 8.90019 135.79 8.04081 135.79 7.06165C135.79 6.11373 135.998 5.25435 136.415 4.48352C136.832 3.70227 137.415 3.0356 138.165 2.48352C138.915 1.92102 139.8 1.48873 140.821 1.18665C141.852 0.884562 142.983 0.733521 144.212 0.733521C145.889 0.733521 147.352 1.0356 148.602 1.63977C149.852 2.24394 150.821 3.07206 151.509 4.12415C152.207 5.17623 152.556 6.37935 152.556 7.73352H147.899C147.899 7.06685 147.759 6.48352 147.477 5.98352C147.207 5.4731 146.79 5.07206 146.227 4.7804C145.675 4.48873 144.977 4.3429 144.134 4.3429C143.321 4.3429 142.644 4.4679 142.102 4.7179C141.561 4.95748 141.155 5.2856 140.884 5.70227C140.613 6.10852 140.477 6.56685 140.477 7.07727C140.477 7.46269 140.571 7.81165 140.759 8.12415C140.957 8.43665 141.248 8.72831 141.634 8.99915C142.019 9.26998 142.493 9.52519 143.056 9.76477C143.618 10.0044 144.269 10.2387 145.009 10.4679C146.248 10.8429 147.337 11.2648 148.274 11.7335C149.222 12.2023 150.014 12.7283 150.649 13.3116C151.285 13.895 151.764 14.5564 152.087 15.296C152.41 16.0356 152.571 16.8741 152.571 17.8116C152.571 18.8012 152.379 19.6866 151.993 20.4679C151.608 21.2491 151.05 21.9106 150.321 22.4523C149.592 22.9939 148.722 23.4054 147.712 23.6866C146.701 23.9679 145.571 24.1085 144.321 24.1085C143.196 24.1085 142.087 23.9627 140.993 23.671C139.899 23.3689 138.905 22.9158 138.009 22.3116C137.123 21.7075 136.415 20.9366 135.884 19.9991C135.352 19.0616 135.087 17.9523 135.087 16.671H139.79C139.79 17.3794 139.899 17.9783 140.118 18.4679C140.337 18.9575 140.644 19.3533 141.04 19.6554C141.446 19.9575 141.925 20.1762 142.477 20.3116C143.04 20.4471 143.655 20.5148 144.321 20.5148C145.134 20.5148 145.8 20.4002 146.321 20.171C146.852 19.9419 147.243 19.6241 147.493 19.2179C147.754 18.8116 147.884 18.3533 147.884 17.8429Z" fill="black"/>
</svg>
