<svg width="20" height="20" viewBox="0 0 20 20" fill="none" xmlns="http://www.w3.org/2000/svg">
<path fill-rule="evenodd" clip-rule="evenodd" d="M0 10C0 4.47715 4.47715 0 10 0C12.6522 0 15.1957 1.05357 17.0711 2.92893C18.9464 4.8043 20 7.34784 20 10C20 15.5228 15.5228 20 10 20C4.47715 20 0 15.5228 0 10ZM2 10C2 14.4183 5.58172 18 10 18C12.1217 18 14.1566 17.1571 15.6569 15.6569C17.1571 14.1566 18 12.1217 18 10C18 5.58172 14.4183 2 10 2C5.58172 2 2 5.58172 2 10ZM15.92 8.52C15.8002 8.16421 15.4913 7.90547 15.12 7.85L12.21 7.4L10.9 4.61C10.7464 4.2471 10.394 4.00824 10 4C9.61305 4.00292 9.26251 4.22882 9.1 4.58L7.78 7.4L4.87 7.85C4.49727 7.90415 4.18658 8.16313 4.06621 8.52002C3.94584 8.87691 4.0362 9.27117 4.3 9.54L6.44 11.72L5.93 14.82C5.85925 15.2048 6.01946 15.5956 6.34 15.82C6.51 15.9387 6.71268 16.0016 6.92 16C7.08877 16.0005 7.25457 15.9556 7.4 15.87L10 14.42L12.59 15.85C12.9238 16.0376 13.3354 16.0182 13.65 15.8C13.9705 15.5756 14.1307 15.1848 14.06 14.8L13.56 11.7L15.69 9.52C15.9449 9.25441 16.0332 8.87026 15.92 8.52ZM11.49 11.54C11.4384 11.2267 11.5386 10.9075 11.76 10.68L12.9 9.53L11.39 9.3C11.059 9.25218 10.7737 9.04202 10.63 8.74L10 7.39L9.36 8.74C9.21818 9.03937 8.93732 9.24908 8.61 9.3L7.09 9.53L8.18 10.68C8.40142 10.9075 8.50163 11.2267 8.45 11.54L8.2 13.11L9.47 12.41C9.7794 12.2314 10.1606 12.2314 10.47 12.41L11.75 13.11L11.49 11.54Z" fill="#4378FF"/>
</svg>
