<svg width="21" height="18" viewBox="0 0 21 18" fill="none" xmlns="http://www.w3.org/2000/svg">
<path d="M0.147892 9.36041C1.93018 14.2083 5.99477 17.3333 10.5 17.3333C15.0052 17.3333 19.0698 14.2083 20.8521 9.36041C20.9385 9.1279 20.9385 8.87208 20.8521 8.63957C19.0698 3.79166 15.0052 0.666656 10.5 0.666656C5.99477 0.666656 1.93018 3.79166 0.147892 8.63957C0.0614612 8.87208 0.0614612 9.1279 0.147892 9.36041ZM10.5 2.74999C14.0135 2.74999 17.2198 5.19061 18.7594 8.99999C17.2198 12.8094 14.0135 15.25 10.5 15.25C6.98643 15.25 3.78018 12.8094 2.2406 8.99999C3.78018 5.19061 6.98643 2.74999 10.5 2.74999ZM10.5 13.1667C11.3241 13.1667 12.1296 12.9223 12.8149 12.4644C13.5001 12.0066 14.0341 11.3559 14.3495 10.5945C14.6648 9.83315 14.7474 8.99537 14.5866 8.18711C14.4258 7.37886 14.029 6.63643 13.4463 6.05371C12.8635 5.47099 12.1211 5.07416 11.3129 4.91338C10.5046 4.75261 9.66682 4.83513 8.90546 5.15049C8.1441 5.46586 7.49336 5.99991 7.03552 6.68511C6.57768 7.37032 6.33331 8.1759 6.33331 8.99999C6.33331 10.1051 6.7723 11.1649 7.5537 11.9463C8.3351 12.7277 9.39491 13.1667 10.5 13.1667ZM10.5 6.91666C10.912 6.91666 11.3148 7.03884 11.6574 7.26776C12 7.49668 12.267 7.82205 12.4247 8.20273C12.5824 8.58341 12.6237 9.0023 12.5433 9.40643C12.4629 9.81055 12.2645 10.1818 11.9731 10.4731C11.6818 10.7645 11.3105 10.9629 10.9064 11.0433C10.5023 11.1237 10.0834 11.0824 9.70272 10.9247C9.32204 10.7671 8.99667 10.5 8.76775 10.1574C8.53883 9.81483 8.41664 9.41203 8.41664 8.99999C8.41664 8.44745 8.63614 7.91755 9.02684 7.52685C9.41754 7.13615 9.94744 6.91666 10.5 6.91666Z" fill="#221122" fill-opacity="0.65"/>
</svg>
