<svg width="27" height="28" viewBox="0 0 27 28" fill="none" xmlns="http://www.w3.org/2000/svg">
<path d="M13.5 26.5C20.4036 26.5 26 20.9036 26 14C26 7.09644 20.4036 1.5 13.5 1.5C6.59644 1.5 1 7.09644 1 14C1 20.9036 6.59644 26.5 13.5 26.5Z" stroke="#221122" stroke-opacity="0.65" stroke-width="2" stroke-miterlimit="10" stroke-linecap="round" stroke-linejoin="round"/>
<path d="M13.5 14C15.0917 14 16.3821 12.7085 16.3821 11.1154C16.3821 9.52226 15.0917 8.23077 13.5 8.23077C11.9083 8.23077 10.6179 9.52226 10.6179 11.1154C10.6179 12.7085 11.9083 14 13.5 14Z" stroke="#221122" stroke-opacity="0.65" stroke-width="2" stroke-miterlimit="10" stroke-linecap="round" stroke-linejoin="round"/>
<path d="M17.3428 16.8846C19.4651 16.8846 21.1586 18.8017 19.6612 20.307C18.2474 21.7283 15.9911 22.6538 13.5 22.6538C11.0089 22.6538 8.75259 21.7283 7.33882 20.307C5.84144 18.8017 7.53489 16.8846 9.65721 16.8846L17.3428 16.8846Z" stroke="#221122" stroke-opacity="0.65" stroke-width="2" stroke-miterlimit="10" stroke-linecap="round" stroke-linejoin="round"/>
</svg>
