<svg width="22" height="23" viewBox="0 0 22 23" fill="none" xmlns="http://www.w3.org/2000/svg">
<path d="M10.9967 7.45395C8.98969 7.45395 7.3518 9.12975 7.3518 11.1832C7.3518 13.2367 8.98969 14.9125 10.9967 14.9125C13.0038 14.9125 14.6416 13.2367 14.6416 11.1832C14.6416 9.12975 13.0038 7.45395 10.9967 7.45395ZM21.9288 11.1832C21.9288 9.63893 21.9424 8.1086 21.8577 6.56708C21.7729 4.77658 21.3737 3.1875 20.094 1.87819C18.8116 0.566083 17.2612 0.160421 15.5112 0.0736936C14.0018 -0.0130342 12.5061 0.000954221 10.9995 0.000954221C9.49008 0.000954221 7.99438 -0.0130342 6.48773 0.0736936C4.73773 0.160421 3.18461 0.568881 1.90492 1.87819C0.622494 3.1903 0.226009 4.77658 0.141243 6.56708C0.0564773 8.1114 0.0701493 9.64172 0.0701493 11.1832C0.0701493 12.7248 0.0564773 14.2579 0.141243 15.7994C0.226009 17.5899 0.625228 19.179 1.90492 20.4883C3.18734 21.8004 4.73773 22.2061 6.48773 22.2928C7.99711 22.3795 9.49281 22.3655 10.9995 22.3655C12.5088 22.3655 14.0045 22.3795 15.5112 22.2928C17.2612 22.2061 18.8143 21.7976 20.094 20.4883C21.3764 19.1762 21.7729 17.5899 21.8577 15.7994C21.9452 14.2579 21.9288 12.7276 21.9288 11.1832ZM10.9967 16.9213C7.8932 16.9213 5.38851 14.3586 5.38851 11.1832C5.38851 8.00788 7.8932 5.44522 10.9967 5.44522C14.1002 5.44522 16.6049 8.00788 16.6049 11.1832C16.6049 14.3586 14.1002 16.9213 10.9967 16.9213ZM16.8346 6.5503C16.11 6.5503 15.5248 5.9516 15.5248 5.21022C15.5248 4.46883 16.11 3.87013 16.8346 3.87013C17.5592 3.87013 18.1444 4.46883 18.1444 5.21022C18.1446 5.38626 18.1109 5.56062 18.0451 5.7233C17.9794 5.88599 17.8829 6.03381 17.7612 6.15829C17.6396 6.28277 17.4951 6.38147 17.3361 6.44874C17.1771 6.51601 17.0067 6.55052 16.8346 6.5503Z" fill="#221122" fill-opacity="0.9"/>
</svg>
