<svg width="38" height="37" viewBox="0 0 38 37" fill="none" xmlns="http://www.w3.org/2000/svg">
<path d="M0.666626 31.8401V5.1734C0.666626 3.84732 1.19341 2.57555 2.13109 1.63787C3.06877 0.700185 4.34054 0.173401 5.66663 0.173401H22.3333C22.7753 0.173401 23.1992 0.348996 23.5118 0.661556C23.8244 0.974117 24 1.39804 24 1.84007C24 2.28209 23.8244 2.70602 23.5118 3.01858C23.1992 3.33114 22.7753 3.50673 22.3333 3.50673H5.66663C5.2246 3.50673 4.80067 3.68233 4.48811 3.99489C4.17555 4.30745 3.99996 4.73137 3.99996 5.1734V31.8401C3.99996 32.2821 4.17555 32.706 4.48811 33.0186C4.80067 33.3311 5.2246 33.5067 5.66663 33.5067H25.6666C26.1087 33.5067 26.5326 33.3311 26.8451 33.0186C27.1577 32.706 27.3333 32.2821 27.3333 31.8401V21.8401C27.3333 21.398 27.5089 20.9741 27.8214 20.6616C28.134 20.349 28.5579 20.1734 29 20.1734C29.442 20.1734 29.8659 20.349 30.1785 20.6616C30.491 20.9741 30.6666 21.398 30.6666 21.8401V31.8401C30.6666 33.1661 30.1398 34.4379 29.2022 35.3756C28.2645 36.3133 26.9927 36.8401 25.6666 36.8401H5.66663C4.34054 36.8401 3.06877 36.3133 2.13109 35.3756C1.19341 34.4379 0.666626 33.1661 0.666626 31.8401ZM14 28.5067C14 28.8364 14.0977 29.1586 14.2808 29.4327C14.464 29.7068 14.7243 29.9204 15.0288 30.0465C15.3334 30.1727 15.6685 30.2057 15.9918 30.1414C16.3151 30.0771 16.612 29.9183 16.8451 29.6852C17.0782 29.4522 17.237 29.1552 17.3013 28.8319C17.3656 28.5086 17.3326 28.1735 17.2064 27.8689C17.0803 27.5644 16.8667 27.3041 16.5926 27.1209C16.3185 26.9378 15.9963 26.8401 15.6666 26.8401C15.2246 26.8401 14.8007 27.0157 14.4881 27.3282C14.1756 27.6408 14 28.0647 14 28.5067ZM36.845 5.10507C36.9999 5.25986 37.1228 5.44367 37.2067 5.646C37.2906 5.84833 37.3338 6.06521 37.3338 6.28423C37.3338 6.50326 37.2906 6.72014 37.2067 6.92247C37.1228 7.1248 36.9999 7.30861 36.845 7.4634L24.6216 19.6851C24.3091 19.9976 23.8853 20.1733 23.4433 20.1734H19C18.5579 20.1734 18.134 19.9978 17.8214 19.6852C17.5089 19.3727 17.3333 18.9488 17.3333 18.5067V14.0617C17.3334 13.6197 17.509 13.1959 17.8216 12.8834L30.0433 0.661734C30.3558 0.349282 30.7797 0.173757 31.2216 0.173757C31.6636 0.173757 32.0874 0.349282 32.4 0.661734L36.845 5.10507ZM33.31 6.28507L31.2216 4.19673L20.6666 14.7534V16.8401H22.7533L33.31 6.28507Z" fill="#212121" fill-opacity="0.5"/>
</svg>
