<svg width="40" height="41" viewBox="0 0 40 41" fill="none" xmlns="http://www.w3.org/2000/svg">
<path d="M34.5486 9.17257H30.7483C30.3209 6.63157 29.0069 4.32421 27.0395 2.66015C25.0721 0.996093 22.5786 0.0830078 20.0018 0.0830078C17.425 0.0830078 14.9316 0.996093 12.9642 2.66015C10.9968 4.32421 9.68276 6.63157 9.25539 9.17257H5.45504C4.00827 9.17257 2.62076 9.74727 1.59774 10.7702C0.574726 11.7932 0 13.1807 0 14.6274V18.2639V18.3275C0.00215237 18.4153 0.0106604 18.5028 0.025457 18.5893L2.57114 32.619C2.9525 34.715 4.05785 36.6105 5.69426 37.9747C7.33067 39.3388 9.3942 40.085 11.5247 40.083H28.479C30.6081 40.0828 32.6697 39.3354 34.3043 37.9711C35.9389 36.6067 37.0427 34.712 37.4234 32.6172L39.9691 18.5893C39.9909 18.4821 39.9891 18.3712 40 18.2639V14.6274C40 13.1813 39.4258 11.7944 38.4035 10.7715C37.3813 9.74866 35.9947 9.17354 34.5486 9.17257ZM20.0018 3.71779C21.6138 3.71965 23.1797 4.25616 24.4541 5.24326C25.7285 6.23036 26.6395 7.61229 27.0443 9.17257H12.9594C13.3642 7.61229 14.2751 6.23036 15.5495 5.24326C16.824 4.25616 18.3898 3.71965 20.0018 3.71779ZM33.8467 31.9663C33.6184 33.2235 32.956 34.3606 31.975 35.1794C30.994 35.9982 29.7568 36.4466 28.479 36.4465H11.5247C10.2471 36.4467 9.01006 35.9985 8.02912 35.1801C7.04817 34.3617 6.3856 33.225 6.15692 31.9681L4.19493 21.1731L16.627 26.1442C18.7927 27.0146 21.211 27.0146 23.3767 26.1442L35.8087 21.1731L33.8467 31.9663ZM36.3669 17.0329L22.0275 22.7695C20.7276 23.2924 19.276 23.2924 17.9762 22.7695L3.63669 17.0329V14.6274C3.63669 14.1451 3.82827 13.6826 4.16928 13.3417C4.51028 13.0007 4.97279 12.8091 5.45504 12.8091H34.5486C35.0309 12.8091 35.4934 13.0007 35.8344 13.3417C36.1754 13.6826 36.3669 14.1451 36.3669 14.6274V17.0329Z" fill="#212121" fill-opacity="0.5"/>
</svg>
