<svg width="21" height="17" viewBox="0 0 21 17" fill="none" xmlns="http://www.w3.org/2000/svg">
<path d="M0.147892 8.8605C1.93018 13.7084 5.99477 16.8334 10.5 16.8334C15.0052 16.8334 19.0698 13.7084 20.8521 8.8605C20.9385 8.62799 20.9385 8.37217 20.8521 8.13966C19.0698 3.29175 15.0052 0.166748 10.5 0.166748C5.99477 0.166748 1.93018 3.29175 0.147892 8.13966C0.0614612 8.37217 0.0614612 8.62799 0.147892 8.8605V8.8605ZM10.5 2.25008C14.0135 2.25008 17.2198 4.69071 18.7594 8.50008C17.2198 12.3095 14.0135 14.7501 10.5 14.7501C6.98643 14.7501 3.78018 12.3095 2.2406 8.50008C3.78018 4.69071 6.98643 2.25008 10.5 2.25008ZM10.5 12.6667C11.3241 12.6667 12.1296 12.4224 12.8149 11.9645C13.5001 11.5067 14.0341 10.856 14.3495 10.0946C14.6648 9.33324 14.7474 8.49546 14.5866 7.6872C14.4258 6.87895 14.029 6.13652 13.4463 5.5538C12.8635 4.97108 12.1211 4.57425 11.3129 4.41348C10.5046 4.2527 9.66682 4.33522 8.90546 4.65058C8.1441 4.96595 7.49336 5.5 7.03552 6.18521C6.57768 6.87041 6.33331 7.67599 6.33331 8.50008C6.33331 9.60515 6.7723 10.665 7.5537 11.4464C8.3351 12.2278 9.39491 12.6667 10.5 12.6667ZM10.5 6.41675C10.912 6.41675 11.3148 6.53893 11.6574 6.76785C12 6.99677 12.267 7.32214 12.4247 7.70282C12.5824 8.0835 12.6237 8.50239 12.5433 8.90652C12.4629 9.31065 12.2645 9.68186 11.9731 9.97322C11.6818 10.2646 11.3105 10.463 10.9064 10.5434C10.5023 10.6238 10.0834 10.5825 9.70272 10.4248C9.32204 10.2671 8.99667 10.0001 8.76775 9.65752C8.53883 9.31492 8.41664 8.91213 8.41664 8.50008C8.41664 7.94755 8.63614 7.41764 9.02684 7.02694C9.41754 6.63624 9.94744 6.41675 10.5 6.41675V6.41675Z" fill="#221122" fill-opacity="0.65"/>
</svg>
