<svg width="27" height="27" viewBox="0 0 27 27" fill="none" xmlns="http://www.w3.org/2000/svg">
<path d="M13.5 26C20.4036 26 26 20.4036 26 13.5C26 6.59644 20.4036 1 13.5 1C6.59644 1 1 6.59644 1 13.5C1 20.4036 6.59644 26 13.5 26Z" stroke="#221122" stroke-opacity="0.65" stroke-width="2" stroke-miterlimit="10" stroke-linecap="round" stroke-linejoin="round"/>
<path d="M13.5 13.5C15.0917 13.5 16.3821 12.2085 16.3821 10.6154C16.3821 9.02226 15.0917 7.73077 13.5 7.73077C11.9083 7.73077 10.6179 9.02226 10.6179 10.6154C10.6179 12.2085 11.9083 13.5 13.5 13.5Z" stroke="#221122" stroke-opacity="0.65" stroke-width="2" stroke-miterlimit="10" stroke-linecap="round" stroke-linejoin="round"/>
<path d="M17.3428 16.3846C19.4651 16.3846 21.1586 18.3017 19.6612 19.807C18.2474 21.2283 15.9911 22.1538 13.5 22.1538C11.0089 22.1538 8.75259 21.2283 7.33882 19.807C5.84144 18.3017 7.53489 16.3846 9.65721 16.3846L17.3428 16.3846Z" stroke="#221122" stroke-opacity="0.65" stroke-width="2" stroke-miterlimit="10" stroke-linecap="round" stroke-linejoin="round"/>
</svg>
