<svg width="38" height="37" viewBox="0 0 38 37" fill="none" xmlns="http://www.w3.org/2000/svg">
<path d="M5.66675 10.1494C6.65565 10.1494 7.62235 9.85617 8.4446 9.30676C9.26684 8.75736 9.90771 7.97646 10.2861 7.06283C10.6646 6.1492 10.7636 5.14387 10.5707 4.17396C10.3777 3.20406 9.90154 2.31315 9.20228 1.61388C8.50302 0.91462 7.6121 0.438416 6.6422 0.24549C5.67229 0.0525638 4.66696 0.15158 3.75333 0.530019C2.8397 0.908457 2.05881 1.54932 1.5094 2.37157C0.959993 3.19381 0.666748 4.16051 0.666748 5.14942C0.666748 6.4755 1.19353 7.74727 2.13121 8.68495C3.0689 9.62263 4.34067 10.1494 5.66675 10.1494ZM5.66675 3.48275C5.99638 3.48275 6.31862 3.5805 6.5927 3.76363C6.86678 3.94677 7.0804 4.20707 7.20655 4.51161C7.33269 4.81615 7.3657 5.15127 7.30139 5.47457C7.23708 5.79787 7.07835 6.09484 6.84526 6.32793C6.61217 6.56102 6.3152 6.71975 5.9919 6.78406C5.6686 6.84837 5.33349 6.81536 5.02894 6.68922C4.7244 6.56307 4.4641 6.34945 4.28097 6.07537C4.09783 5.80128 4.00008 5.47905 4.00008 5.14942C4.00008 4.70739 4.17568 4.28347 4.48824 3.97091C4.8008 3.65834 5.22472 3.48275 5.66675 3.48275ZM5.66675 23.4827C6.65565 23.4827 7.62235 23.1895 8.4446 22.6401C9.26684 22.0907 9.90771 21.3098 10.2861 20.3962C10.6646 19.4825 10.7636 18.4772 10.5707 17.5073C10.3777 16.5374 9.90154 15.6465 9.20228 14.9472C8.50302 14.248 7.6121 13.7717 6.6422 13.5788C5.67229 13.3859 4.66696 13.4849 3.75333 13.8634C2.8397 14.2418 2.05881 14.8827 1.5094 15.7049C0.959993 16.5271 0.666748 17.4938 0.666748 18.4827C0.666748 19.8088 1.19353 21.0806 2.13121 22.0183C3.0689 22.956 4.34067 23.4827 5.66675 23.4827ZM5.66675 16.8161C5.99638 16.8161 6.31862 16.9138 6.5927 17.097C6.86678 17.2801 7.0804 17.5404 7.20655 17.8449C7.33269 18.1495 7.3657 18.4846 7.30139 18.8079C7.23708 19.1312 7.07835 19.4282 6.84526 19.6613C6.61217 19.8943 6.3152 20.0531 5.9919 20.1174C5.6686 20.1817 5.33349 20.1487 5.02894 20.0225C4.7244 19.8964 4.4641 19.6828 4.28097 19.4087C4.09783 19.1346 4.00008 18.8124 4.00008 18.4827C4.00008 18.0407 4.17568 17.6168 4.48824 17.3042C4.8008 16.9917 5.22472 16.8161 5.66675 16.8161ZM5.66675 36.8161C6.65565 36.8161 7.62235 36.5228 8.4446 35.9734C9.26684 35.424 9.90771 34.6431 10.2861 33.7295C10.6646 32.8159 10.7636 31.8105 10.5707 30.8406C10.3777 29.8707 9.90154 28.9798 9.20228 28.2806C8.50302 27.5813 7.6121 27.1051 6.6422 26.9122C5.67229 26.7192 4.66696 26.8182 3.75333 27.1967C2.8397 27.5751 2.05881 28.216 1.5094 29.0382C0.959993 29.8605 0.666748 30.8272 0.666748 31.8161C0.666748 33.1422 1.19353 34.4139 2.13121 35.3516C3.0689 36.2893 4.34067 36.8161 5.66675 36.8161ZM5.66675 30.1494C5.99638 30.1494 6.31862 30.2472 6.5927 30.4303C6.86678 30.6134 7.0804 30.8737 7.20655 31.1783C7.33269 31.4828 7.3657 31.8179 7.30139 32.1412C7.23708 32.4645 7.07835 32.7615 6.84526 32.9946C6.61217 33.2277 6.3152 33.3864 5.9919 33.4507C5.6686 33.515 5.33349 33.482 5.02894 33.3559C4.7244 33.2297 4.4641 33.0161 4.28097 32.742C4.09783 32.468 4.00008 32.1457 4.00008 31.8161C4.00008 31.3741 4.17568 30.9501 4.48824 30.6376C4.8008 30.325 5.22472 30.1494 5.66675 30.1494ZM37.3334 5.14942C37.3334 5.59144 37.1578 6.01537 36.8453 6.32793C36.5327 6.64049 36.1088 6.81608 35.6667 6.81608H15.6667C15.2247 6.81608 14.8008 6.64049 14.4882 6.32793C14.1757 6.01537 14.0001 5.59144 14.0001 5.14942C14.0001 4.70739 14.1757 4.28347 14.4882 3.97091C14.8008 3.65834 15.2247 3.48275 15.6667 3.48275H35.6667C36.1088 3.48275 36.5327 3.65834 36.8453 3.97091C37.1578 4.28347 37.3334 4.70739 37.3334 5.14942ZM37.3334 18.4827C37.3334 18.9248 37.1578 19.3487 36.8453 19.6613C36.5327 19.9738 36.1088 20.1494 35.6667 20.1494H15.6667C15.2247 20.1494 14.8008 19.9738 14.4882 19.6613C14.1757 19.3487 14.0001 18.9248 14.0001 18.4827C14.0001 18.0407 14.1757 17.6168 14.4882 17.3042C14.8008 16.9917 15.2247 16.8161 15.6667 16.8161H35.6667C36.1088 16.8161 36.5327 16.9917 36.8453 17.3042C37.1578 17.6168 37.3334 18.0407 37.3334 18.4827ZM37.3334 31.8161C37.3334 32.2581 37.1578 32.682 36.8453 32.9946C36.5327 33.3072 36.1088 33.4828 35.6667 33.4828H15.6667C15.2247 33.4828 14.8008 33.3072 14.4882 32.9946C14.1757 32.682 14.0001 32.2581 14.0001 31.8161C14.0001 31.3741 14.1757 30.9501 14.4882 30.6376C14.8008 30.325 15.2247 30.1494 15.6667 30.1494H35.6667C36.1088 30.1494 36.5327 30.325 36.8453 30.6376C37.1578 30.9501 37.3334 31.3741 37.3334 31.8161Z" fill="#212121" fill-opacity="0.5"/>
</svg>
