<svg width="25" height="26" viewBox="0 0 25 26" fill="none" xmlns="http://www.w3.org/2000/svg">
<path d="M25 24.1925L18.0167 17.2091C19.6948 15.1945 20.5316 12.6104 20.3531 9.99452C20.1745 7.3786 18.9943 4.93223 17.058 3.16432C15.1216 1.39641 12.5782 0.44307 9.95692 0.502632C7.33559 0.562193 4.83814 1.63007 2.9841 3.4841C1.13007 5.33814 0.0621934 7.83559 0.00263186 10.4569C-0.0569296 13.0782 0.896406 15.6216 2.66432 17.558C4.43223 19.4943 6.8786 20.6745 9.49452 20.8531C12.1104 21.0316 14.6945 20.1948 16.7091 18.5167L23.6925 25.5L25 24.1925ZM1.88247 10.7048C1.88247 9.05878 2.37056 7.44975 3.28503 6.08115C4.1995 4.71256 5.49927 3.64586 7.01997 3.01597C8.54067 2.38607 10.214 2.22126 11.8284 2.54238C13.4428 2.8635 14.9256 3.65612 16.0895 4.82002C17.2534 5.98391 18.0461 7.46681 18.3672 9.08118C18.6883 10.6955 18.5235 12.3689 17.8936 13.8896C17.2637 15.4103 16.197 16.7101 14.8284 17.6245C13.4598 18.539 11.8508 19.0271 10.2048 19.0271C7.99832 19.0246 5.88293 18.147 4.32272 16.5868C2.76252 15.0266 1.88492 12.9112 1.88247 10.7048Z" fill="#221122" fill-opacity="0.9"/>
</svg>
