<svg width="23" height="23" viewBox="0 0 23 23" fill="none" xmlns="http://www.w3.org/2000/svg">
<path fill-rule="evenodd" clip-rule="evenodd" d="M22.9307 11.2548C22.9307 17.4701 18.0054 22.5094 11.9307 22.5094C5.85591 22.5094 0.930664 17.4701 0.930664 11.2548C0.930664 5.03938 5.85591 0.00012207 11.9307 0.00012207C18.0054 0.00012207 22.9307 5.03938 22.9307 11.2548ZM12.3248 8.30885C11.2551 8.76373 9.1165 9.7063 5.91 11.1356C5.38933 11.3476 5.11616 11.5549 5.09141 11.7575C5.04925 12.1007 5.46908 12.2358 6.03925 12.4187C6.11716 12.444 6.19783 12.4693 6.28033 12.4975C6.84225 12.6841 7.59758 12.9026 7.98991 12.9111C8.3465 12.9186 8.74433 12.7685 9.18341 12.4609C12.1791 10.391 13.7255 9.34522 13.8227 9.32271C13.8914 9.30676 13.9867 9.28613 14.0509 9.34522C14.1151 9.40337 14.1087 9.51404 14.1022 9.54405C14.0601 9.72506 12.4156 11.2904 11.5631 12.1007C11.2972 12.353 11.1093 12.5322 11.0708 12.5734C10.9847 12.6644 10.8967 12.7516 10.8123 12.8351C10.2898 13.3491 9.89933 13.7355 10.8343 14.3657C11.2835 14.6687 11.6428 14.9191 12.0012 15.1685C12.3927 15.4415 12.7832 15.7135 13.2892 16.053C13.4175 16.1393 13.5403 16.2284 13.6604 16.3156C14.116 16.6485 14.5257 16.9468 15.0317 16.8999C15.3251 16.8717 15.6294 16.5894 15.7834 15.7463C16.1473 13.7523 16.8642 9.43432 17.0301 7.65421C17.0402 7.50641 17.034 7.35792 17.0117 7.21153C16.9984 7.09329 16.9421 6.98449 16.8541 6.90671C16.723 6.79698 16.5195 6.77353 16.4278 6.77541C16.0144 6.78291 15.3801 7.00894 12.3248 8.30885Z" fill="#221122" fill-opacity="0.9"/>
</svg>
