<svg width="39" height="39" viewBox="0 0 39 39" fill="none" xmlns="http://www.w3.org/2000/svg">
<path d="M30.3074 0.750001C29.2642 0.746693 28.2308 0.950687 27.2671 1.35014C26.3034 1.74959 25.4286 2.33653 24.6937 3.07688L2.91554 24.8531C2.63619 25.1329 2.45244 25.4939 2.39054 25.8844L0.772419 36.0806C0.725769 36.3732 0.749096 36.6726 0.840487 36.9544C0.931878 37.2361 1.08873 37.4923 1.2982 37.7017C1.50766 37.9112 1.76378 38.068 2.04556 38.1594C2.32734 38.2508 2.62676 38.2742 2.91929 38.2275L13.1249 36.6094C13.5154 36.5475 13.8764 36.3637 14.1562 36.0844L35.923 14.3062C37.0335 13.1948 37.7894 11.779 38.0951 10.2379C38.4008 8.6968 38.2426 7.09966 37.6404 5.6485C37.0383 4.19734 36.0193 2.95737 34.7123 2.08542C33.4054 1.21348 31.8692 0.748743 30.298 0.750001H30.3074ZM11.9249 33L4.87492 34.125L5.99992 27.0806L21.7312 11.3475L27.6599 17.2763L11.9249 33ZM33.2718 11.655L30.3093 14.625L24.3749 8.69063L27.3393 5.72813C28.1377 4.96602 29.199 4.5408 30.3027 4.5408C31.4065 4.5408 32.4678 4.96602 33.2662 5.72813C33.6556 6.11715 33.9645 6.5791 34.1753 7.08759C34.3861 7.59608 34.4946 8.14112 34.4946 8.69156C34.4946 9.24201 34.3861 9.78705 34.1753 10.2955C33.9645 10.804 33.6556 11.266 33.2662 11.655H33.2718Z" fill="#221122" fill-opacity="0.75"/>
</svg>
