<svg width="23" height="23" viewBox="0 0 23 23" fill="none" xmlns="http://www.w3.org/2000/svg">
<path d="M15.3069 0.00012207H8.55362C2.39087 0.00012207 0.929932 1.49488 0.929932 7.80028V14.7099C0.929932 21.0153 2.39087 22.5101 8.55362 22.5101H15.3069C21.4697 22.5101 22.9306 21.0153 22.9306 14.7099V7.80028C22.9306 1.49488 21.4552 0.00012207 15.3069 0.00012207ZM18.6908 16.0577H17.0937C16.4887 16.0577 16.3024 15.5667 15.2141 14.4384C14.2688 13.5008 13.8501 13.3762 13.6171 13.3762C13.2877 13.3762 13.1942 13.4712 13.1942 13.9334V15.4098C13.1942 15.8058 13.0726 16.0436 12.0482 16.0436C10.3542 16.0436 8.47456 14.9955 7.15662 13.0428C5.16906 10.1813 4.62524 8.03804 4.62524 7.59489C4.62524 7.35643 4.71806 7.13345 5.16562 7.13345H6.76612C7.17106 7.13345 7.32506 7.32407 7.48249 7.76722C8.27381 10.1047 9.59174 12.1523 10.1356 12.1523C10.3363 12.1523 10.4291 12.0573 10.4291 11.5333V9.11919C10.3679 8.00568 9.79524 7.91002 9.79524 7.5147C9.79524 7.32407 9.94924 7.13345 10.1961 7.13345H12.713C13.0533 7.13345 13.1784 7.32407 13.1784 7.73416V10.991C13.1784 11.3427 13.3324 11.4672 13.4252 11.4672C13.626 11.4672 13.7979 11.3427 14.1698 10.9614C15.3193 9.64253 16.1429 7.60895 16.1429 7.60895C16.2502 7.3705 16.4365 7.14752 16.8414 7.14752H18.4419C18.9218 7.14752 19.0291 7.40004 18.9218 7.75175C18.7211 8.70417 16.7624 11.5326 16.7624 11.5326C16.5939 11.8182 16.5293 11.9427 16.7624 12.2613C16.9342 12.4998 17.4932 12.9943 17.8651 13.4374C18.5492 14.2323 19.0751 14.8991 19.2154 15.3606C19.3728 15.8185 19.1404 16.057 18.6887 16.057L18.6908 16.0577Z" fill="#221122" fill-opacity="0.9"/>
</svg>
